<?xml version="1.0" encoding="utf-8"?>
<svg xmlns="http://www.w3.org/2000/svg" viewBox="-119.287 -208.771 1280 320" xmlns:bx="https://boxy-svg.com">
  <rect x="-118.33" y="-209.182" width="1279.713" height="320.779" style="stroke: rgb(0, 0, 0); fill-rule: nonzero; fill: url(&quot;#gradient-1&quot;); filter: url(&quot;#gaussian-blur-filter-0&quot;);"/>
  <g id="grupo_logo" transform="matrix(0.36467, 0, 0, 0.36467, 302.10965, -83.360237)" style="filter: url(&quot;#drop-shadow-filter-0&quot;);">
    <g transform="matrix(1.173885, 0, 0, 1.173885, 423.349854, -83.69426)" style="">
      <title>logo</title>
      <path id="logo_Q" d="M242.74,162.9c9.66-16.17,15.21-35.08,15.21-55.29,0-37.84-19.47-71.13-48.93-90.41-5.91-3.86-12.21-7.16-18.84-9.82-5.11-2.05-10.42-3.72-15.89-4.98-2.66-.61-5.36-1.13-8.1-1.54-2.48-.37-5.56-.66-8.09-.86v215.26c2.73-.2,5.42-.5,8.09-.91,2.74-.41,5.44-.92,8.1-1.53,8.66-1.99,16.92-5.03,24.65-8.96,6.71-3.42,13.02-7.52,18.83-12.22,5.03-4.06,9.68-8.55,13.9-13.44,8.89,7.8,18.42,14.88,28.51,21.15,14.1-.29,27.54-3.28,39.82-8.48-20.71-6.25-40-15.77-57.26-27.97ZM201.59,183.5c-5.3,3.61-11,6.68-17.01,9.13-3.34,1.36-6.77,2.53-10.29,3.49v-98.09c10.68,25.93,26.27,49.33,45.6,69.03-5.32,6.26-11.48,11.8-18.3,16.44ZM229.79,152.95c-23.88-19.97-43.02-45.4-55.5-74.39-3.09-7.17-5.77-14.56-8.01-22.14-.03.05-.06.09-.09.14v-.43c-1.45-4.93-2.71-9.93-3.78-15h0c-1.72-8.12-2.94-16.41-3.63-24.86,2.37.24,5.19.61,7.41,1,2.75.49,5.45,1.1,8.1,1.83.94.26,1.87.53,2.79.81,5.75,1.77,11.25,4.09,16.46,6.91,28.71,15.5,48.22,45.87,48.22,80.79,0,16.49-4.35,31.97-11.97,45.34Z" style="fill: rgb(243, 206, 58);"/>
      <path id="logo_A" d="M141.9,0c-2.73.2-5.42.5-8.09.91-2.74.41-5.44.92-8.1,1.53-8.66,1.99-16.92,5.03-24.65,8.96-6.71,3.42-13.02,7.52-18.83,12.22-5.03,4.06-9.68,8.55-13.9,13.44-8.89-7.8-18.42-14.88-28.51-21.15-14.1.29-27.54,3.28-39.82,8.48,20.71,6.25,40,15.77,57.26,27.97-9.66,16.17-15.21,35.08-15.21,55.29,0,37.84,19.47,71.13,48.93,90.41,5.91,3.86,12.21,7.16,18.84,9.82,5.11,2.05,10.42,3.72,15.89,4.98,2.66.61,5.36,1.13,8.1,1.54,2.48.37,5.56.66,8.09.86v-16.2c-2.5-.24-5.65-.64-8.09-1.07-2.75-.49-5.45-1.1-8.1-1.83-.94-.26-1.87-.53-2.79-.81-5.75-1.77-11.25-4.09-16.46-6.91-28.71-15.5-48.22-45.87-48.22-80.79,0-16.49,4.35-31.97,11.97-45.34,23.88,19.97,43.02,45.4,55.5,74.39,3.09,7.17,5.77,14.56,8.01,22.14.03-.05.06-.09.09-.14v.43c1.45,4.93,2.71,9.93,3.78,15h0c1.72,8.12,2.94,16.42,3.63,24.87.23.02.45.04.68.06V0ZM125.71,117.23c-10.68-25.93-26.27-49.33-45.6-69.03,5.32-6.26,11.48-11.8,18.3-16.44,5.3-3.61,11-6.68,17.01-9.13,3.34-1.36,6.77-2.53,10.29-3.49v98.09Z" style="fill: rgb(243, 206, 58);"/>
    </g>
    <g transform="matrix(1, 0, 0, 1, -32.886932, 107.514809)">
      <title>nombre</title>
      <text style="fill: rgb(243, 206, 58); font-family: Poppins; font-size: 60.2px; font-weight: 200; line-height: 96.3591px; white-space: pre;" x="428.248" y="144.528">alan</text>
      <text style="fill: rgb(243, 206, 58); font-family: Poppins; font-size: 60.2px; line-height: 96.3591px; white-space: pre;" x="562.096" y="144.529">quintana</text>
    </g>
  </g>
  <defs>
    <style bx:fonts="Poppins">@import url(https://fonts.googleapis.com/css2?family=Poppins%3Aital%2Cwght%400%2C100%3B0%2C200%3B0%2C300%3B0%2C400%3B0%2C500%3B0%2C600%3B0%2C700%3B0%2C800%3B0%2C900%3B1%2C100%3B1%2C200%3B1%2C300%3B1%2C400%3B1%2C500%3B1%2C600%3B1%2C700%3B1%2C800%3B1%2C900&amp;display=swap);</style>
    <radialGradient gradientUnits="userSpaceOnUse" cx="470.935" cy="1521.65" r="639.857" id="gradient-1" gradientTransform="matrix(-1.096169, 0, 0, -0.30996, 1064.87793, 271.289792)">
      <stop offset="0" style="stop-color: rgb(0, 70, 78);"/>
      <stop offset="1" style="stop-color: rgb(0, 18, 25);"/>
    </radialGradient>
    <filter id="drop-shadow-filter-0" bx:preset="drop-shadow 1 27 10 13 0.51 rgba(0,0,0,0.3)" color-interpolation-filters="sRGB" x="-50%" y="-50%" width="200%" height="200%">
      <feGaussianBlur in="SourceAlpha" stdDeviation="13"/>
      <feOffset dx="27" dy="10"/>
      <feComponentTransfer result="offsetblur">
        <feFuncA id="spread-ctrl" type="linear" slope="1.02"/>
      </feComponentTransfer>
      <feFlood flood-color="rgba(0,0,0,0.3)"/>
      <feComposite in2="offsetblur" operator="in"/>
      <feMerge>
        <feMergeNode/>
        <feMergeNode in="SourceGraphic"/>
      </feMerge>
    </filter>
    <filter id="gaussian-blur-filter-0" bx:preset="gaussian-blur 1 1.1" color-interpolation-filters="sRGB" x="-50%" y="-50%" width="200%" height="200%">
      <feGaussianBlur stdDeviation="1.1 1.1" edgeMode="none"/>
    </filter>
    <bx:export>
      <bx:file format="webp" path="bgGit.webp"/>
    </bx:export>
  </defs>
</svg>